<?xml version="1.0" encoding="UTF-8"?>
<!DOCTYPE svg PUBLIC "-//W3C//DTD SVG 1.1//EN" "http://www.w3.org/Graphics/SVG/1.1/DTD/svg11.dtd">
<svg xmlns="http://www.w3.org/2000/svg" version="1.1" width="387px" height="402px" style="shape-rendering:geometricPrecision; text-rendering:geometricPrecision; image-rendering:optimizeQuality; fill-rule:evenodd; clip-rule:evenodd" xmlns:xlink="http://www.w3.org/1999/xlink">
<g><path style="opacity:0.977" fill="#201a1a" d="M 191.5,113.5 C 190.662,113.842 190.328,114.508 190.5,115.5C 188.809,111.992 186.476,108.825 183.5,106C 176.202,99.3504 168.202,93.6837 159.5,89C 147.313,82.9411 134.979,77.2745 122.5,72C 104.225,68.9886 86.2248,70.3219 68.5,76C 58.1855,80.6455 50.1855,87.8122 44.5,97.5C 44.631,96.7611 44.4643,96.0944 44,95.5C 41.9592,96.4231 39.7925,96.7564 37.5,96.5C 43.3661,93.8048 47.8661,89.4715 51,83.5C 68.88,70.1025 89.0466,64.6025 111.5,67C 139.516,73.9228 164.349,86.7562 186,105.5C 188.054,108.047 189.887,110.714 191.5,113.5 Z"/></g>
<g><path style="opacity:1" fill="#ede1b0" d="M 190.5,115.5 C 194.43,120.796 196.264,126.796 196,133.5C 197.413,150.512 194.913,166.845 188.5,182.5C 185.32,185.525 182.654,189.025 180.5,193C 174.123,194.978 167.789,197.145 161.5,199.5C 136.834,202.14 112.167,202.14 87.5,199.5C 81.5139,196.023 75.1805,192.857 68.5,190C 62.2939,184.623 56.2939,179.123 50.5,173.5C 47.5186,169.326 45.6853,164.659 45,159.5C 43.4554,139.854 42.7887,120.187 43,100.5C 43.5133,99.4734 44.0133,98.4734 44.5,97.5C 50.1855,87.8122 58.1855,80.6455 68.5,76C 86.2248,70.3219 104.225,68.9886 122.5,72C 134.979,77.2745 147.313,82.9411 159.5,89C 168.202,93.6837 176.202,99.3504 183.5,106C 186.476,108.825 188.809,111.992 190.5,115.5 Z"/></g>
<g><path style="opacity:0.995" fill="#13100f" d="M 44.5,97.5 C 44.0133,98.4734 43.5133,99.4734 43,100.5C 42.7887,120.187 43.4554,139.854 45,159.5C 45.6853,164.659 47.5186,169.326 50.5,173.5C 50.7148,175.179 50.0481,176.179 48.5,176.5C 47.7659,175.292 47.4326,173.959 47.5,172.5C 46.5,172.5 45.5,172.5 44.5,172.5C 46.7668,182.387 43.7668,190.053 35.5,195.5C 30.3563,197.699 25.023,199.366 19.5,200.5C 13.1067,206.012 6.44002,211.012 -0.5,215.5C -0.5,213.167 -0.5,210.833 -0.5,208.5C 2.66699,205.502 6.00033,202.669 9.5,200C 11.7411,198.261 13.4078,196.094 14.5,193.5C 11.6727,186.51 8.83934,179.51 6,172.5C 5.33333,157.833 5.33333,143.167 6,128.5C 12.4104,115.16 21.9104,104.66 34.5,97C 35.448,96.5172 36.448,96.3505 37.5,96.5C 39.7925,96.7564 41.9592,96.4231 44,95.5C 44.4643,96.0944 44.631,96.7611 44.5,97.5 Z"/></g>
<g><path style="opacity:1" fill="#7b7664" d="M 95.5,103.5 C 97.0659,100.506 96.3992,99.5056 93.5,100.5C 94.1834,98.8235 95.5168,98.1568 97.5,98.5C 97.9227,100.781 97.256,102.448 95.5,103.5 Z"/></g>
<g><path style="opacity:1" fill="#171512" d="M 95.5,103.5 C 85.78,111.416 75.1133,112.916 63.5,108C 62.0267,107.29 61.3601,106.124 61.5,104.5C 69.148,105.43 76.8147,105.597 84.5,105C 87.7422,103.888 90.7422,102.388 93.5,100.5C 96.3992,99.5056 97.0659,100.506 95.5,103.5 Z"/></g>
<g><path style="opacity:1" fill="#eadfaf" d="M 35.5,100.5 C 36.4959,100.414 37.3292,100.748 38,101.5C 39.2032,113.792 39.8699,126.126 40,138.5C 40.9419,145.819 41.7752,153.152 42.5,160.5C 41.6194,168.497 40.7861,176.497 40,184.5C 36.2106,191.085 30.3772,194.085 22.5,193.5C 18.4811,188.962 14.9811,183.962 12,178.5C 10.4704,160.862 10.137,143.196 11,125.5C 18.6444,116.689 26.811,108.355 35.5,100.5 Z"/></g>
<g><path style="opacity:1" fill="#100e0c" d="M 165.5,115.5 C 168.187,115.336 170.854,115.503 173.5,116C 177.871,118.906 181.704,122.406 185,126.5C 186.622,134.258 183.789,139.591 176.5,142.5C 175.336,149.476 175.169,156.476 176,163.5C 176.5,164 177,164.5 177.5,165C 181.045,165.571 184.378,164.904 187.5,163C 188.872,161.758 189.872,160.258 190.5,158.5C 191.5,157.167 192.5,157.167 193.5,158.5C 188.531,168.902 181.031,171.236 171,165.5C 165.964,167.387 160.797,168.221 155.5,168C 147.851,163.453 140.017,159.286 132,155.5C 125.733,151.448 123.566,145.782 125.5,138.5C 126.98,145.903 131.314,150.569 138.5,152.5C 139.682,154.761 141.349,156.595 143.5,158C 149.026,159.395 154.193,161.562 159,164.5C 163.577,163.823 168.077,162.823 172.5,161.5C 173.632,154.217 173.799,146.883 173,139.5C 172,138.833 171,138.167 170,137.5C 168.254,133.673 166.254,130.007 164,126.5C 163.013,122.525 163.513,118.859 165.5,115.5 Z"/></g>
<g><path style="opacity:1" fill="#eee2b0" d="M 253.5,209.5 C 228.576,217.084 203.576,224.584 178.5,232C 176.254,233.039 174.087,234.206 172,235.5C 168.071,242.366 163.905,249.033 159.5,255.5C 158.504,255.414 157.671,255.748 157,256.5C 156.169,296.335 156.335,336.002 157.5,375.5C 156.429,384.22 155.095,392.886 153.5,401.5C 123.5,401.5 93.5,401.5 63.5,401.5C 63.9709,400.099 64.6376,398.766 65.5,397.5C 67.8298,379.226 66.1632,361.393 60.5,344C 58.0596,340.981 56.8929,337.481 57,333.5C 55.6839,332.026 54.6839,330.359 54,328.5C 53.123,324.346 52.2896,320.179 51.5,316C 50.2483,300.34 50.2483,284.84 51.5,269.5C 52.2202,265.27 52.8868,260.937 53.5,256.5C 53.7173,250.189 55.0507,244.189 57.5,238.5C 57.5629,236.519 56.8962,234.852 55.5,233.5C 54.2963,236.936 52.7963,240.269 51,243.5C 50.7543,249.721 49.5877,255.721 47.5,261.5C 46.4206,278.822 46.2539,296.156 47,313.5C 47.7015,324.84 50.8682,335.34 56.5,345C 57.8007,350.234 59.3007,355.401 61,360.5C 61.6667,372.5 61.6667,384.5 61,396.5C 59.7308,397.905 59.2308,399.571 59.5,401.5C 39.5,401.5 19.5,401.5 -0.5,401.5C -0.5,339.5 -0.5,277.5 -0.5,215.5C 6.44002,211.012 13.1067,206.012 19.5,200.5C 25.023,199.366 30.3563,197.699 35.5,195.5C 43.7668,190.053 46.7668,182.387 44.5,172.5C 45.5,172.5 46.5,172.5 47.5,172.5C 47.4326,173.959 47.7659,175.292 48.5,176.5C 53.6605,181.265 58.6605,186.265 63.5,191.5C 67.5195,193.404 71.1861,195.737 74.5,198.5C 78.7566,199.956 83.0899,200.956 87.5,201.5C 91.7102,203.896 96.3768,205.063 101.5,205C 120.564,205.23 139.564,205.063 158.5,204.5C 161.312,204.233 163.645,203.233 165.5,201.5C 169.724,200.254 174.057,199.254 178.5,198.5C 182.546,195.404 186.379,192.071 190,188.5C 219.383,176.929 248.883,165.763 278.5,155C 282.853,154.164 287.187,153.331 291.5,152.5C 299.079,151.486 306.413,149.653 313.5,147C 318.287,146.121 322.953,146.455 327.5,148C 340.704,154.682 344.204,164.849 338,178.5C 335.833,181.333 333.333,183.833 330.5,186C 323.673,187.084 317.006,188.75 310.5,191C 291.311,196.732 272.311,202.899 253.5,209.5 Z"/></g>
<g><path style="opacity:1" fill="#1a1814" d="M 50.5,173.5 C 56.2939,179.123 62.2939,184.623 68.5,190C 75.1805,192.857 81.5139,196.023 87.5,199.5C 85.834,198.334 84.1673,198.334 82.5,199.5C 84.2914,200.17 85.9581,200.837 87.5,201.5C 83.0899,200.956 78.7566,199.956 74.5,198.5C 71.1861,195.737 67.5195,193.404 63.5,191.5C 58.6605,186.265 53.6605,181.265 48.5,176.5C 50.0481,176.179 50.7148,175.179 50.5,173.5 Z"/></g>
<g><path style="opacity:0.954" fill="#1d1618" d="M 255.5,211.5 C 255.167,210.5 254.5,209.833 253.5,209.5C 272.311,202.899 291.311,196.732 310.5,191C 317.006,188.75 323.673,187.084 330.5,186C 333.333,183.833 335.833,181.333 338,178.5C 344.204,164.849 340.704,154.682 327.5,148C 322.953,146.455 318.287,146.121 313.5,147C 306.413,149.653 299.079,151.486 291.5,152.5C 290.817,150.824 289.483,150.157 287.5,150.5C 297.322,147.172 307.489,144.838 318,143.5C 330.54,143.713 338.873,149.713 343,161.5C 345.366,175.606 339.866,185.106 326.5,190C 302.959,197.681 279.292,204.848 255.5,211.5 Z"/></g>
<g><path style="opacity:1" fill="#110d0c" d="M 191.5,113.5 C 196.306,118.407 198.472,124.407 198,131.5C 199.75,148.522 198.25,165.189 193.5,181.5C 217.498,173.773 241.498,165.273 265.5,156C 272.67,153.442 280.003,151.609 287.5,150.5C 289.483,150.157 290.817,150.824 291.5,152.5C 287.187,153.331 282.853,154.164 278.5,155C 248.883,165.763 219.383,176.929 190,188.5C 186.379,192.071 182.546,195.404 178.5,198.5C 174.057,199.254 169.724,200.254 165.5,201.5C 162.688,201.767 160.355,202.767 158.5,204.5C 139.564,205.063 120.564,205.23 101.5,205C 96.3768,205.063 91.7102,203.896 87.5,201.5C 85.9581,200.837 84.2914,200.17 82.5,199.5C 84.1673,198.334 85.834,198.334 87.5,199.5C 112.167,202.14 136.834,202.14 161.5,199.5C 167.789,197.145 174.123,194.978 180.5,193C 182.654,189.025 185.32,185.525 188.5,182.5C 194.913,166.845 197.413,150.512 196,133.5C 196.264,126.796 194.43,120.796 190.5,115.5C 190.328,114.508 190.662,113.842 191.5,113.5 Z"/></g>
<g><path style="opacity:1" fill="#7e775f" d="M 165.5,201.5 C 163.645,203.233 161.312,204.233 158.5,204.5C 160.355,202.767 162.688,201.767 165.5,201.5 Z"/></g>
<g><path style="opacity:0.949" fill="#201b1b" d="M 253.5,209.5 C 254.5,209.833 255.167,210.5 255.5,211.5C 229.035,220.29 202.368,228.79 175.5,237C 170.607,243.562 166.107,250.396 162,257.5C 161.514,297.836 160.848,338.17 160,378.5C 158.755,386.129 157.921,393.795 157.5,401.5C 156.167,401.5 154.833,401.5 153.5,401.5C 155.095,392.886 156.429,384.22 157.5,375.5C 157.333,336.499 157.5,297.499 158,258.5C 159.039,257.756 159.539,256.756 159.5,255.5C 163.905,249.033 168.071,242.366 172,235.5C 174.087,234.206 176.254,233.039 178.5,232C 203.576,224.584 228.576,217.084 253.5,209.5 Z"/></g>
<g><path style="opacity:1" fill="#151310" d="M 53.5,256.5 C 51.5698,260.373 50.9031,264.706 51.5,269.5C 50.2483,284.84 50.2483,300.34 51.5,316C 52.2896,320.179 53.123,324.346 54,328.5C 54.6839,330.359 55.6839,332.026 57,333.5C 56.8929,337.481 58.0596,340.981 60.5,344C 66.1632,361.393 67.8298,379.226 65.5,397.5C 64.6376,398.766 63.9709,400.099 63.5,401.5C 62.1667,401.5 60.8333,401.5 59.5,401.5C 59.2308,399.571 59.7308,397.905 61,396.5C 61.6667,384.5 61.6667,372.5 61,360.5C 59.3007,355.401 57.8007,350.234 56.5,345C 50.8682,335.34 47.7015,324.84 47,313.5C 46.2539,296.156 46.4206,278.822 47.5,261.5C 49.5877,255.721 50.7543,249.721 51,243.5C 52.7963,240.269 54.2963,236.936 55.5,233.5C 56.8962,234.852 57.5629,236.519 57.5,238.5C 55.0507,244.189 53.7173,250.189 53.5,256.5 Z"/></g>
<g><path style="opacity:1" fill="#ada784" d="M 53.5,256.5 C 52.8868,260.937 52.2202,265.27 51.5,269.5C 50.9031,264.706 51.5698,260.373 53.5,256.5 Z"/></g>
<g><path style="opacity:1" fill="#f6eccc" d="M 159.5,255.5 C 159.539,256.756 159.039,257.756 158,258.5C 157.5,297.499 157.333,336.499 157.5,375.5C 156.335,336.002 156.169,296.335 157,256.5C 157.671,255.748 158.504,255.414 159.5,255.5 Z"/></g>
</svg>
